#!OML:ASF H:\Terrain\Patient Classification 1\PLAYGROUND\JustinFriday\JustinFriday.ASF
:FULLY-SPECIFIED
:DEGREES
1973
root 11.9465 12.865 -11.4707 135.196 -22.5427 -159.395
lowerback 9.96446 5.57037 2.99303
upperback 3.66309 7.49877 5.77696
thorax -2.12809 3.56597 3.45001
lowerneck 13.5259 4.3587 -5.27422
upperneck 14.4697 2.28357 16.717
head 1.68684 0.378028 5.98003
rclavicle 0 -1.74931e-014
rhumerus -41.7637 -49.8761 -20.601
rradius 134.819
rwrist -3.9662
rhand -33.7536 -27.8
rfingers 7.12502
rthumb -6.9417 -777.666
lclavicle 0 -1.74931e-014
lhumerus 10.7707 60.3802 -0.516442
lradius 97.0408
lwrist 71.344
lhand -2.95975 0.933973
lfingers 7.12502
lthumb 22.7526 29.6123
rfemur 3.4867 -25.1942 6.71133
rtibia 93.8943
rfoot -33.5457 -8.84143
rtoes -21.2668
lfemur -12.2785 -12.9248 1.33723
ltibia 102.36
lfoot -33.9953 -28.3346
ltoes -7.99941
1974
root 11.9502 12.9671 -11.5138 135.589 -23.5656 -159.38
lowerback 9.97499 5.76562 3.06012
upperback 3.60848 7.78129 5.54123
thorax -2.1611 3.7157 3.13096
lowerneck 13.3153 4.5102 -6.06384
upperneck 14.147 2.42949 17.6687
head 1.55266 0.442041 6.41373
rclavicle 5.40694e-014 -2.70347e-014
rhumerus -43.0898 -49.5095 -23.6796
rradius 132.526
rwrist -6.92061
rhand -30.4028 -27.9135
rfingers 7.12502
rthumb -3.70647 -777.861
lclavicle 5.40694e-014 -2.70347e-014
lhumerus 9.10554 60.3566 -0.423686
lradius 97.2777
lwrist 72.1095
lhand -2.85545 -0.398809
lfingers 7.12502
lthumb 22.8527 28.2672
rfemur 3.68381 -25.413 6.74175
rtibia 93.0363
rfoot -33.251 -9.29223
rtoes -21.6003
lfemur -12.3423 -13.2427 0.845766
ltibia 101.453
lfoot -34.2312 -27.8752
ltoes -8.70874
1975
root 11.9548 13.0721 -11.5548 136.036 -24.7449 -159.463
lowerback 10.0225 5.96538 2.58304
upperback 3.54631 8.0262 5.51789
thorax -2.32442 3.84422 3.32602
lowerneck 13.2722 4.59861 -6.29078
upperneck 13.6403 2.66783 17.8001
head 1.37156 0.570926 6.47689
rclavicle -1.27222e-014 -3.18055e-015
rhumerus -43.3446 -49.0072 -27.0583
rradius 129.402
rwrist -9.04861
rhand -28.7026 -29.9141
rfingers 7.12502
rthumb -2.06446 -779.884
lclavicle -1.27222e-014 -3.18055e-015
lhumerus 6.75864 60.4136 -0.675353
lradius 97.4845
lwrist 73.0827
lhand -2.01523 -1.58884
lfingers 7.12502
lthumb 23.6588 26.9753
rfemur 3.85072 -25.6479 6.61609
rtibia 92.1785
rfoot -32.9812 -9.77202
rtoes -21.7872
lfemur -12.4897 -13.5348 0.150692
ltibia 100.492
lfoot -34.316 -27.5249
ltoes -8.53885
1976
root 11.962 13.1735 -11.5991 136.319 -25.6688 -159.09
lowerback 9.909 6.03109 2.65907
upperback 3.51255 8.12258 5.42319
thorax -2.27729 3.89725 3.18471
lowerneck 13.196 4.73404 -5.33716
upperneck 12.8905 3.21432 17.1674
head 1.14987 0.902271 6.07011
rclavicle 8.66701e-014 -6.04305e-014
rhumerus -43.8069 -48.6929 -30.4884
rradius 125.618
rwrist -10.3363
rhand -29.7964 -32.0627
rfingers 7.12502
rthumb -3.12087 -782.02
lclavicle 8.66701e-014 -6.04305e-014
lhumerus 4.73516 60.6375 -1.07171
lradius 97.5826
lwrist 73.6345
lhand -0.523176 -2.58543
lfingers 7.12502
lthumb 25.0892 25.7864
rfemur 4.00356 -25.9411 7.18251
rtibia 91.2497
rfoot -32.7565 -10.3063
rtoes -21.4805
lfemur -12.7312 -13.7588 0.2138
ltibia 99.5244
lfoot -34.7574 -27.4083
ltoes -8.44508
1977
root 11.9703 13.2712 -11.6404 136.445 -26.3302 -158.502
lowerback 9.79744 6.10875 3.05538
upperback 3.55905 8.24711 5.46986
thorax -2.12303 3.95772 3.01915
lowerneck 13.269 4.81808 -4.80843
upperneck 11.9955 3.64315 16.6617
head 0.864717 1.14473 5.78301
rclavicle -3.73715e-014 -1.43125e-014
rhumerus -43.8755 -48.6893 -33.5952
rradius 121.26
rwrist -11.2077
rhand -31.1501 -33.2271
rfingers 7.12502
rthumb -4.42811 -783.161
lclavicle -3.73715e-014 -1.43125e-014
lhumerus 2.82852 60.845 -1.28649
lradius 97.7261
lwrist 74.4191
lhand 0.597802 -3.51729
lfingers 7.12502
lthumb 26.1628 24.6999
rfemur 4.10056 -26.1393 8.2276
rtibia 90.2833
rfoot -32.4746 -10.9516
rtoes -21.1353
lfemur -12.8637 -13.8064 0.801893
ltibia 98.573
lfoot -35.4619 -27.2168
ltoes -8.92383
1978
root 11.9766 13.3576 -11.6748 136.4 -26.8517 -157.937
lowerback 9.88915 6.34266 3.55481
upperback 3.59374 8.6 5.61384
thorax -2.09707 4.12789 2.85067
lowerneck 13.7092 4.6729 -4.98234
upperneck 11.1276 3.58069 16.8362
head 0.536624 1.08244 5.85498
rclavicle -5.96354e-014 -3.81667e-014
rhumerus -44.1478 -48.901 -35.7512
rradius 116.565
rwrist -11.7859
rhand -31.9155 -33.8676
rfingers 7.12502
rthumb -5.16715 -783.785
lclavicle -5.96354e-014 -3.81667e-014
lhumerus 1.56773 60.7992 -0.64763
lradius 97.8569
lwrist 75.2483
lhand 1.0244 -4.45335
lfingers 7.12502
lthumb 26.5712 23.7027
rfemur 4.27966 -26.2168 9.24023
rtibia 89.3358
rfoot -32.1669 -11.6873
rtoes -21.0383
lfemur -12.8104 -13.7931 1.36274
ltibia 97.6847
lfoot -35.8361 -27.1636
ltoes -9.12608
1979
root 11.9788 13.4407 -11.7001 136.647 -27.2307 -157.258
lowerback 9.29702 6.57331 4.23149
upperback 3.78355 8.89619 5.83882
thorax -1.51452 4.27672 2.77033
lowerneck 13.8949 4.56854 -5.46659
upperneck 10.1538 3.56561 17.1981
head 0.196532 1.04764 6.03923
rclavicle -3.97569e-014 -7.63333e-014
rhumerus -43.8208 -49.3913 -37.8122
rradius 111.464
rwrist -11.842
rhand -31.5746 -35.6663
rfingers 7.12502
rthumb -4.83794 -785.591
lclavicle -3.97569e-014 -7.63333e-014
lhumerus -0.0644876 61.0111 -0.248654
lradius 97.9542
lwrist 75.4279
lhand 0.89261 -5.64748
lfingers 7.12502
lthumb 26.4451 22.5276
rfemur 3.89126 -26.2875 10.6735
rtibia 88.3742
rfoot -31.6759 -12.61
rtoes -21.1143
lfemur -13.2249 -13.5813 2.2018
ltibia 96.8813
lfoot -36.2771 -27.0545
ltoes -9.6842
1980
root 11.9742 13.5368 -11.7177 137.138 -27.32 -156.09
lowerback 8.73541 6.63239 5.6141
upperback 3.54482 9.0537 5.95395
thorax -1.25907 4.36117 2.19318
lowerneck 13.8165 4.59774 -5.60888
upperneck 9.52189 3.73595 17.2985
head -0.00299041 1.13553 6.07815
rclavicle 1.98785e-015 -3.81667e-014
rhumerus -43.3969 -49.6097 -39.8997
rradius 106.159
rwrist -11.5333
rhand -30.0682 -34.1937
rfingers 7.12502
rthumb -3.3833 -784.147
lclavicle 1.98785e-015 -3.81667e-014
lhumerus -2.06722 60.938 -0.668438
lradius 97.982
lwrist 75.1122
lhand 0.602439 -7.11519
lfingers 7.12502
lthumb 26.1673 21.1014
rfemur 2.91286 -26.4067 13.0736
rtibia 87.2661
rfoot -30.9578 -13.7967
rtoes -21.4423
lfemur -14.23 -13.1237 3.87104
ltibia 96.0977
lfoot -36.4937 -27.3737
ltoes -9.67116
